# This file uses centimeters as units for non-parametric coordinates.

mtllib shg00.mtl
g default
v -0.370220 0.588200 -0.370220
v -0.721929 0.449800 -0.721929
v -0.214520 1.003400 -0.214520
v -0.684907 0.121100 -0.684907
v -0.750806 0.000000 -0.752190
v 0.370220 0.588200 -0.370220
v 0.684907 0.121100 -0.684907
v 0.721929 0.449800 -0.721929
v 0.214520 1.003400 -0.214520
v 0.750806 0.000000 -0.752190
v 0.750806 0.000000 0.749422
v 0.370220 0.588200 0.370220
v 0.721929 0.449800 0.721929
v 0.214520 1.003400 0.214520
v 0.684907 0.121100 0.684907
v -0.214520 1.003400 0.214520
v -0.721929 0.449800 0.721929
v -0.684907 0.121100 0.684907
v -0.370220 0.588200 0.370220
v -0.750806 0.000000 0.749422
v -0.721929 0.588200 -0.721929
v -0.750806 0.138400 -0.752190
v 0.000000 2.966950 0.000000
v -0.684907 0.467100 -0.684907
v -0.370220 1.003400 -0.370220
v 0.370220 1.003400 -0.370220
v 0.750806 0.138400 -0.752190
v 0.684907 0.467100 -0.684907
v 0.721929 0.588200 -0.721929
v 0.370220 1.003400 0.370220
v 0.684907 0.467100 0.684907
v 0.721929 0.588200 0.721929
v 0.750806 0.138400 0.749422
v -0.721929 0.588200 0.721929
v -0.750806 0.138400 0.749422
v -0.370220 1.003400 0.370220
v -0.684907 0.467100 0.684907
v -0.163035 2.837200 -0.163035
v -0.163035 2.837200 0.163035
v 0.163035 2.837200 0.163035
v 0.163035 2.837200 -0.163035
v -0.323299 0.622800 0.323299
v -0.323299 0.622800 -0.323299
v 0.323299 0.622800 -0.323299
v 0.323299 0.622800 0.323299
v 0.684751 0.466834 0.684880
v 0.684793 0.466788 0.684880
v 0.684792 0.466777 0.684880
v 0.684783 0.466774 0.684880
v 0.684773 0.466780 0.684880
v 0.684735 0.466819 0.684880
v 0.684711 0.466830 0.684880
v 0.684657 0.466834 0.684880
v 0.684620 0.466822 0.684880
v 0.684600 0.466804 0.684880
v 0.684584 0.466773 0.684880
v 0.684600 0.466768 0.684880
v 0.684580 0.466755 0.684880
v 0.684580 0.466709 0.684880
v 0.684600 0.466646 0.684880
v 0.684703 0.466683 0.684880
v 0.684678 0.466705 0.684880
v 0.684645 0.466727 0.684880
v 0.684617 0.466742 0.684880
v 0.684598 0.466750 0.684880
v 0.684630 0.466756 0.684880
v 0.684658 0.466741 0.684880
v 0.684697 0.466713 0.684880
v 0.684721 0.466691 0.684880
v 0.684747 0.466703 0.684880
v 0.684764 0.466709 0.684880
v 0.684771 0.466694 0.684880
v 0.684757 0.466682 0.684880
v 0.684737 0.466674 0.684880
v 0.684749 0.466648 0.684880
v 0.684744 0.466606 0.684880
v 0.684735 0.466593 0.684880
v 0.684727 0.466617 0.684880
v 0.684728 0.466647 0.684880
v 0.684718 0.466666 0.684880
v 0.684613 0.466627 0.684880
v 0.684636 0.466604 0.684880
v 0.684662 0.466591 0.684880
v 0.684691 0.466588 0.684880
v 0.684711 0.466596 0.684880
v 0.684719 0.466604 0.684880
v 0.684724 0.466581 0.684880
v 0.684706 0.466571 0.684880
v 0.684690 0.466567 0.684880
v 0.684674 0.466568 0.684880
v 0.684631 0.466584 0.684880
v 0.684592 0.466620 0.684880
v 0.684551 0.466608 0.684880
v 0.684525 0.466602 0.684880
v 0.684512 0.466604 0.684880
v 0.684510 0.466611 0.684880
v 0.684525 0.466624 0.684880
v 0.684579 0.466640 0.684880
v 0.684558 0.466709 0.684880
v 0.684559 0.466759 0.684880
v 0.684553 0.466760 0.684880
v 0.684514 0.466766 0.684880
v 0.684512 0.466775 0.684880
v 0.684517 0.466782 0.684880
v 0.684540 0.466783 0.684880
v 0.684564 0.466779 0.684880
v 0.684578 0.466810 0.684880
v 0.684606 0.466838 0.684880
v 0.684652 0.466854 0.684880
v 0.684723 0.467102 0.684880
v 0.684726 0.467091 0.684880
v 0.684710 0.467080 0.684880
v 0.684689 0.467091 0.684880
v 0.684735 0.467069 0.684880
v 0.684739 0.467059 0.684880
v 0.684720 0.467046 0.684880
v 0.684699 0.467037 0.684880
v 0.684650 0.467036 0.684880
v 0.684894 0.467028 0.684880
v 0.684881 0.466989 0.684880
v 0.684862 0.466946 0.684880
v 0.684840 0.466905 0.684880
v 0.684817 0.466874 0.684880
v 0.684794 0.466853 0.684880
v 0.684758 0.466840 0.684880
v 0.684720 0.466847 0.684880
v 0.684685 0.466877 0.684880
v 0.684664 0.466913 0.684880
v 0.684649 0.466949 0.684880
v 0.684642 0.466975 0.684880
v 0.684633 0.467019 0.684880
v 0.684627 0.467068 0.684880
v 0.684639 0.467074 0.684880
v 0.684645 0.467057 0.684880
v 0.684654 0.467019 0.684880
v 0.684662 0.466988 0.684880
v 0.684675 0.466942 0.684880
v 0.684687 0.466915 0.684880
v 0.684701 0.466893 0.684880
v 0.684731 0.466866 0.684880
v 0.684758 0.466861 0.684880
v 0.684780 0.466871 0.684880
v 0.684804 0.466895 0.684880
v 0.684820 0.466918 0.684880
v 0.684839 0.466953 0.684880
v 0.684855 0.466990 0.684880
v 0.684871 0.467035 0.684880
v 0.684880 0.467048 0.684880
vn -1.000000 0.000000 0.000000
vn -1.000000 0.000000 0.000000
vn -1.000000 0.000000 0.000000
vn -1.000000 0.000000 0.000000
vn 0.000000 0.000000 1.000000
vn 0.000000 0.000000 1.000000
vn 0.000000 0.000000 1.000000
vn 0.000000 0.000000 1.000000
vn 1.000000 0.000000 0.000000
vn 1.000000 0.000000 0.000000
vn 1.000000 0.000000 0.000000
vn 1.000000 0.000000 0.000000
vn 0.000000 0.000000 -1.000000
vn 0.000000 0.000000 -1.000000
vn 0.000000 0.000000 -1.000000
vn 0.000000 0.000000 -1.000000
vn -0.376673 -0.267234 0.886963
vn -0.376673 -0.267234 0.886963
vn -0.376673 -0.267234 0.886963
vn 0.000000 0.000000 1.000000
vn 0.000000 0.000000 1.000000
vn 0.000000 0.000000 1.000000
vn 0.001842 0.000000 0.999998
vn 0.001842 0.000000 0.999998
vn 0.001842 0.000000 0.999998
vn 0.000000 0.000000 1.000000
vn 0.000000 0.000000 1.000000
vn 0.000000 0.000000 1.000000
vn 0.001800 0.000000 0.999998
vn 0.001800 0.000000 0.999998
vn 0.001800 0.000000 0.999998
vn -0.003784 0.000000 0.999993
vn -0.003784 0.000000 0.999993
vn -0.003784 0.000000 0.999993
vn -0.001656 0.000000 0.999999
vn -0.001656 0.000000 0.999999
vn -0.001656 0.000000 0.999999
vn 0.000000 0.000000 1.000000
vn 0.000000 0.000000 1.000000
vn 0.000000 0.000000 1.000000
vn 0.000000 0.000000 1.000000
vn 0.000000 0.000000 1.000000
vn 0.000000 0.000000 1.000000
vn 0.001029 0.000000 1.000000
vn 0.001029 0.000000 0.999999
vn 0.001029 0.000000 1.000000
vn 0.000000 0.000000 1.000000
vn 0.000000 0.000000 1.000000
vn 0.000000 0.000000 1.000000
vn 0.000000 0.000000 1.000000
vn 0.000000 0.000000 1.000000
vn 0.000000 0.000000 1.000000
vn -0.002188 0.000000 0.999998
vn -0.002188 0.000000 0.999998
vn -0.002188 0.000000 0.999998
vn 0.001969 0.000000 0.999998
vn 0.001969 0.000000 0.999998
vn 0.001969 0.000000 0.999998
vn 0.000000 0.000000 1.000000
vn 0.000000 0.000000 1.000000
vn 0.000000 0.000000 1.000000
vn 0.000801 0.000000 1.000000
vn 0.000801 0.000000 1.000000
vn 0.000801 0.000000 1.000000
vn 0.000000 0.000000 1.000000
vn 0.000000 0.000000 1.000000
vn 0.000000 0.000000 1.000000
vn 0.003992 0.000000 0.999992
vn 0.003992 0.000000 0.999992
vn 0.003992 0.000000 0.999992
vn 0.000000 0.000000 1.000000
vn 0.000000 0.000000 1.000000
vn 0.000000 0.000000 1.000000
vn 0.000000 0.000000 1.000000
vn 0.000000 0.000000 1.000000
vn 0.000000 0.000000 1.000000
vn 0.000000 0.000000 1.000000
vn 0.000000 0.000000 1.000000
vn 0.000000 0.000000 1.000000
vn 0.004381 0.000000 0.999990
vn 0.004381 0.000000 0.999990
vn 0.004381 0.000000 0.999990
vn 0.000000 0.000000 1.000000
vn 0.000000 0.000000 1.000000
vn 0.000000 0.000000 1.000000
vn 0.000000 0.000000 1.000000
vn 0.000000 0.000000 1.000000
vn 0.000000 0.000000 1.000000
vn 0.001828 0.000000 0.999998
vn 0.001828 0.000000 0.999998
vn 0.001828 0.000000 0.999998
vn 0.000000 0.000000 1.000000
vn 0.000000 0.000000 1.000000
vn 0.000000 0.000000 1.000000
vn 0.000000 0.000000 0.000000
vn 0.000000 0.000000 0.000000
vn 0.000000 0.000000 1.000000
vn 0.000000 0.000000 1.000000
vn 0.000000 0.000000 1.000000
vn 0.000000 0.000000 1.000000
vn -0.007526 0.000000 0.999972
vn -0.000000 0.000000 0.000000
vn -0.007526 0.000000 0.999972
vn 0.000000 0.000000 1.000000
vn 0.000000 0.000000 1.000000
vn 0.000000 0.000000 1.000000
vn 0.001517 0.000000 0.999999
vn 0.001517 0.000000 0.999999
vn 0.001517 0.000000 0.999999
vn 0.000000 0.000000 1.000000
vn 0.000000 0.000000 1.000000
vn 0.000000 0.000000 1.000000
vn 0.000000 0.000000 1.000000
vn 0.000000 0.000000 0.000000
vn 0.000000 0.000000 1.000000
vn 0.000000 0.000000 0.000000
vn 0.000000 0.000000 0.000000
vn 0.005618 0.000000 0.999984
vn 0.000000 0.000000 1.000000
vn 0.000000 0.000000 1.000000
vn 0.000000 0.000000 1.000000
vn 0.000000 0.000000 0.000000
vn 0.000000 0.000000 1.000000
vn 0.000000 0.000000 0.000000
vn -0.000000 0.000000 0.000000
vn -0.002155 0.000000 0.999998
vn -0.000000 0.000000 0.000000
vn -0.000272 0.000000 1.000000
vn -0.000272 0.000000 1.000000
vn -0.000272 0.000000 1.000000
vn 0.000000 0.000000 1.000000
vn 0.000000 0.000000 1.000000
vn 0.000000 0.000000 1.000000
vn -0.005814 0.000000 0.999983
vn -0.005814 0.000000 0.999983
vn -0.005814 0.000000 0.999983
vn 0.000000 0.000000 1.000000
vn 0.000000 0.000000 1.000000
vn 0.000000 0.000000 1.000000
vn 0.000000 0.000000 1.000000
vn 0.000000 0.000000 1.000000
vn 0.000000 0.000000 1.000000
vn 0.000000 0.000000 1.000000
vn 0.000000 0.000000 1.000000
vn 0.000000 0.000000 1.000000
vn 0.000000 0.000000 1.000000
vn 0.000000 0.000000 1.000000
vn 0.000000 0.000000 1.000000
vn 0.000000 0.000000 1.000000
vn 0.000000 0.000000 1.000000
vn 0.000000 0.000000 1.000000
vn 0.000000 0.000000 1.000000
vn 0.000000 0.000000 1.000000
vn 0.000000 0.000000 1.000000
vn -0.003636 0.000000 0.999993
vn -0.003636 0.000000 0.999993
vn -0.003636 0.000000 0.999993
vn 0.002874 0.000000 0.999996
vn 0.002874 0.000000 0.999996
vn 0.002874 0.000000 0.999996
vn 0.008097 0.000000 0.999967
vn 0.000000 0.000000 0.000000
vn 0.008097 0.000000 0.999967
vn -0.004545 0.000000 0.999990
vn -0.004545 0.000000 0.999990
vn -0.004545 0.000000 0.999990
vn 0.003953 0.000000 0.999992
vn 0.003953 0.000000 0.999992
vn 0.003953 0.000000 0.999992
vn -0.005510 0.000000 0.999985
vn -0.005510 0.000000 0.999985
vn -0.005510 0.000000 0.999985
vn 0.005408 0.000000 0.999985
vn 0.005408 0.000000 0.999985
vn 0.005408 0.000000 0.999985
vn -0.004736 0.000000 0.999989
vn -0.004736 0.000000 0.999989
vn -0.004736 0.000000 0.999989
vn 0.005797 0.000000 0.999983
vn 0.005797 0.000000 0.999983
vn 0.005797 0.000000 0.999983
vn -0.006525 0.000000 0.999979
vn -0.006525 0.000000 0.999979
vn -0.006525 0.000000 0.999979
vn 0.008230 0.000000 0.999966
vn 0.008230 0.000000 0.999966
vn 0.008230 0.000000 0.999966
vn -0.004040 0.000000 0.999992
vn -0.004040 0.000000 0.999992
vn -0.004040 0.000000 0.999992
vn -0.002874 0.000000 0.999996
vn -0.002874 0.000000 0.999996
vn -0.002874 0.000000 0.999996
vn 0.004561 0.000000 0.999990
vn 0.004561 0.000000 0.999990
vn 0.004561 0.000000 0.999990
vn 0.000000 0.000000 1.000000
vn 0.000000 0.000000 1.000000
vn 0.000000 0.000000 1.000000
vn 0.003096 0.000000 0.999995
vn 0.003096 0.000000 0.999995
vn 0.003096 0.000000 0.999995
vn -0.006211 0.000000 0.999981
vn -0.006211 0.000000 0.999981
vn -0.006211 0.000000 0.999981
vn 0.000000 0.000000 1.000000
vn 0.000000 0.000000 1.000000
vn 0.000000 0.000000 1.000000
vn 0.000000 0.000000 1.000000
vn 0.000000 0.000000 1.000000
vn 0.000000 0.000000 1.000000
vn 0.000000 0.000000 1.000000
vn 0.000000 0.000000 1.000000
vn 0.000000 0.000000 1.000000
vn 0.000000 0.000000 1.000000
vn 0.000000 0.000000 1.000000
vn 0.000000 0.000000 1.000000
vn 0.000000 0.000000 0.000000
vn 0.000000 0.000000 0.000000
vn 0.000000 0.000000 0.000000
vn 0.000000 0.000000 1.000000
vn 0.000000 0.000000 1.000000
vn 0.000000 0.000000 1.000000
vn 0.000000 0.000000 1.000000
vn 0.000000 0.000000 1.000000
vn 0.000000 0.000000 1.000000
vn 0.005650 0.000000 0.999984
vn 0.005650 0.000000 0.999984
vn 0.005650 0.000000 0.999984
vn 0.000000 0.000000 0.000000
vn 0.000000 0.000000 0.000000
vn 0.000000 0.000000 1.000000
vn 0.000000 0.000000 1.000000
vn 0.000000 0.000000 1.000000
vn 0.000000 0.000000 1.000000
vn 0.000000 0.000000 1.000000
vn 0.000000 0.000000 1.000000
vn 0.000000 0.000000 1.000000
vn 0.000000 0.000000 1.000000
vn 0.000000 0.000000 1.000000
vn 0.000000 0.000000 1.000000
vn 0.000000 0.000000 0.000000
vn 0.000000 0.000000 0.000000
vn 0.000000 0.000000 0.000000
vn 0.000000 0.000000 1.000000
vn 0.000000 0.000000 1.000000
vn 0.000000 0.000000 1.000000
vn 0.000000 0.000000 1.000000
vn 0.000000 0.000000 1.000000
vn 0.000000 0.000000 1.000000
vn 0.000000 0.000000 1.000000
vn 0.000000 0.000000 1.000000
vn 0.000000 0.000000 1.000000
vn 0.000000 0.000000 1.000000
vn 0.000000 0.000000 1.000000
vn 0.000000 0.000000 1.000000
vn 0.000000 0.000000 1.000000
vn 0.000000 0.000000 1.000000
vn 0.000000 0.000000 1.000000
vn 0.000000 0.000000 0.000000
vn 0.000000 0.000000 0.000000
vn 0.000000 0.000000 0.000000
vn 0.000000 0.000000 1.000000
vn 0.000000 0.000000 0.000000
vn 0.000000 0.000000 1.000000
vn 0.002222 0.000000 0.999998
vn 0.002222 0.000000 0.999998
vn 0.002222 0.000000 0.999998
vn 0.000000 0.000000 1.000000
vn 0.000000 0.000000 1.000000
vn 0.000000 0.000000 1.000000
vn 0.000000 0.000000 1.000000
vn 0.000000 0.000000 1.000000
vn 0.000000 0.000000 1.000000
vn 0.000000 0.000000 1.000000
vn 0.000000 0.000000 1.000000
vn 0.000000 0.000000 1.000000
vn 0.000000 0.000000 1.000000
vn 0.000000 0.000000 1.000000
vn 0.000000 0.000000 1.000000
vn 0.000000 0.000000 1.000000
vn 0.000000 0.000000 1.000000
vn 0.000000 0.000000 1.000000
vn 0.000000 0.000000 1.000000
vn 0.000000 0.000000 1.000000
vn 0.000000 0.000000 1.000000
vn 0.000000 0.000000 1.000000
vn 0.000000 0.000000 1.000000
vn 0.000000 0.000000 1.000000
vn 0.000000 0.000000 1.000000
vn 0.000000 0.000000 1.000000
vn 0.000000 0.000000 1.000000
vn 0.000000 0.000000 1.000000
vn 0.000000 0.000000 1.000000
vn 0.000000 0.000000 1.000000
vn 0.000000 0.000000 1.000000
vn 0.000000 0.000000 1.000000
vn 0.000000 0.000000 1.000000
vn 0.000000 0.000000 1.000000
vn 0.000000 0.000000 1.000000
vn 0.000000 0.000000 1.000000
vn 0.000912 0.000000 1.000000
vn 0.000000 0.000000 0.000000
vn 0.000000 0.000000 0.000000
vn 0.000000 0.000000 1.000000
vn 0.000000 0.000000 1.000000
vn 0.000000 0.000000 1.000000
vn 0.000000 0.000000 1.000000
vn 0.000000 0.000000 1.000000
vn 0.000000 0.000000 1.000000
vn 0.000000 0.000000 1.000000
vn 0.000000 0.000000 1.000000
vn 0.000000 0.000000 1.000000
vn 0.000000 0.000000 1.000000
vn 0.000000 0.000000 1.000000
vn 0.000000 0.000000 1.000000
vn 0.000000 0.000000 1.000000
vn 0.000000 0.000000 1.000000
vn 0.000000 0.000000 1.000000
vn 0.000000 0.000000 1.000000
vn 0.000000 0.000000 1.000000
vn 0.000000 0.000000 1.000000
vn 0.004273 0.000000 0.999991
vn 0.004273 0.000000 0.999991
vn 0.004273 0.000000 0.999991
vn -0.000767 0.000000 1.000000
vn -0.000767 0.000000 1.000000
vn -0.000767 0.000000 1.000000
vn 0.000747 0.000000 1.000000
vn 0.000747 0.000000 1.000000
vn 0.000747 0.000000 1.000000
vn 0.000000 0.996254 0.086472
vn 0.000000 0.996254 0.086472
vn 0.000000 0.996254 0.086472
vn 0.000000 0.996254 0.086472
vn -0.086472 0.996254 0.000000
vn -0.086472 0.996254 0.000000
vn -0.086472 0.996254 0.000000
vn -0.086472 0.996254 0.000000
vn 0.000000 0.996254 -0.086472
vn 0.000000 0.996254 -0.086472
vn 0.000000 0.996254 -0.086472
vn 0.000000 0.996254 -0.086472
vn 0.086472 0.996254 0.000000
vn 0.086472 0.996254 0.000000
vn 0.086472 0.996254 0.000000
vn 0.086472 0.996254 0.000000
vn -1.000000 0.000000 0.000000
vn -1.000000 0.000000 0.000000
vn -1.000000 0.000000 0.000000
vn -1.000000 0.000000 0.000000
vn 0.000000 0.000000 1.000000
vn 0.000000 0.000000 1.000000
vn 0.000000 0.000000 1.000000
vn 0.000000 0.000000 1.000000
vn 1.000000 0.000000 0.000000
vn 1.000000 0.000000 0.000000
vn 1.000000 0.000000 0.000000
vn 1.000000 0.000000 0.000000
vn 0.000000 0.000000 -1.000000
vn 0.000000 0.000000 -1.000000
vn 0.000000 0.000000 -1.000000
vn 0.000000 0.000000 -1.000000
vn 0.000000 -1.000000 0.000000
vn 0.000000 -1.000000 0.000000
vn 0.000000 -1.000000 0.000000
vn 0.000000 -1.000000 0.000000
vn 0.000000 1.000000 0.000000
vn 0.000000 1.000000 0.000000
vn 0.000000 1.000000 0.000000
vn 0.000000 1.000000 0.000000
vn -1.000000 0.000000 0.000000
vn -1.000000 0.000000 0.000000
vn -1.000000 0.000000 0.000000
vn -1.000000 0.000000 0.000000
vn 0.000000 0.000000 1.000000
vn 0.000000 0.000000 1.000000
vn 0.000000 0.000000 1.000000
vn 0.000000 0.000000 1.000000
vn 1.000000 0.000000 0.000000
vn 1.000000 0.000000 0.000000
vn 1.000000 0.000000 0.000000
vn 1.000000 0.000000 0.000000
vn 0.000000 0.000000 -1.000000
vn 0.000000 0.000000 -1.000000
vn 0.000000 0.000000 -1.000000
vn 0.000000 0.000000 -1.000000
vn 0.000000 -1.000000 0.000000
vn 0.000000 -1.000000 0.000000
vn 0.000000 -1.000000 0.000000
vn 0.000000 -1.000000 0.000000
vn -0.999606 0.028065 0.000000
vn -0.999606 0.028065 0.000000
vn -0.999606 0.028065 0.000000
vn -0.999606 0.028065 0.000000
vn -0.622709 0.782454 0.000000
vn -0.622709 0.782454 0.000000
vn -0.622709 0.782454 0.000000
vn 0.000000 0.028065 0.999606
vn 0.000000 0.028065 0.999606
vn 0.000000 0.028065 0.999606
vn 0.000000 0.028065 0.999606
vn 0.000000 0.782454 0.622708
vn 0.000000 0.782454 0.622708
vn 0.000000 0.782454 0.622708
vn 0.999606 0.028065 0.000000
vn 0.999606 0.028065 0.000000
vn 0.999606 0.028065 0.000000
vn 0.999606 0.028065 0.000000
vn 0.622709 0.782454 0.000000
vn 0.622709 0.782454 0.000000
vn 0.622709 0.782454 0.000000
vn 0.000000 0.028065 -0.999606
vn 0.000000 0.028065 -0.999606
vn 0.000000 0.028065 -0.999606
vn 0.000000 0.028065 -0.999606
vn 0.000000 0.782454 -0.622708
vn 0.000000 0.782454 -0.622708
vn 0.000000 0.782454 -0.622708
vn 0.000000 -1.000000 0.000000
vn 0.000000 -1.000000 0.000000
vn 0.000000 -1.000000 0.000000
vn 0.000000 -1.000000 0.000000
vn -1.000000 0.000000 0.000000
vn -1.000000 0.000000 0.000000
vn -1.000000 0.000000 0.000000
vn -1.000000 0.000000 0.000000
vn 0.000000 0.000000 1.000000
vn 0.000000 0.000000 1.000000
vn 0.000000 0.000000 1.000000
vn 0.000000 0.000000 1.000000
vn 1.000000 0.000000 0.000000
vn 1.000000 0.000000 0.000000
vn 1.000000 0.000000 0.000000
vn 1.000000 0.000000 0.000000
vn 0.000000 0.000000 -1.000000
vn 0.000000 0.000000 -1.000000
vn 0.000000 0.000000 -1.000000
vn 0.000000 0.000000 -1.000000
vn 0.000000 -1.000000 0.000000
vn 0.000000 -1.000000 0.000000
vn 0.000000 -1.000000 0.000000
vn 0.000000 -1.000000 0.000000
vn 0.000000 1.000000 0.000000
vn 0.000000 1.000000 0.000000
vn 0.000000 1.000000 0.000000
vn 0.000000 1.000000 0.000000
s off
g shg00:shg00
usemtl initialShadingGroup
f 24//1 4//2 18//3 37//4
f 37//5 18//6 15//7 31//8
f 31//9 15//10 7//11 28//12
f 28//13 7//14 4//15 24//16
f 148//17 119//18 31//19
f 147//20 119//21 148//22
f 147//23 120//24 119//25
f 146//26 120//27 147//28
f 146//29 121//30 120//31
f 145//32 121//33 146//34
f 145//35 122//36 121//37
f 144//38 122//39 145//40
f 143//41 122//42 144//43
f 143//44 123//45 122//46
f 142//47 123//48 143//49
f 142//50 124//51 123//52
f 142//53 125//54 124//55
f 141//56 125//57 142//58
f 141//59 126//60 125//61
f 140//62 126//63 141//64
f 140//65 127//66 126//67
f 139//68 127//69 140//70
f 139//71 128//72 127//73
f 138//74 128//75 139//76
f 137//77 128//78 138//79
f 137//80 129//81 128//82
f 136//83 129//84 137//85
f 136//86 130//87 129//88
f 136//89 131//90 130//91
f 135//92 131//93 136//94
f 110//95 112//96 111//97
f 113//98 112//99 110//100
f 114//101 116//102 115//103
f 135//104 132//105 131//106
f 113//107 134//108 112//109
f 133//110 134//111 113//112
f 132//113 134//114 133//115
f 132//116 118//117 134//118
f 118//119 116//120 114//121
f 135//122 118//123 132//124
f 118//125 117//126 116//127
f 118//128 135//129 117//130
f 57//131 58//132 65//133
f 86//134 87//135 77//136
f 56//137 58//138 57//139
f 76//140 86//141 77//142
f 76//143 78//144 86//145
f 65//146 66//147 57//148
f 70//149 72//150 71//151
f 70//152 73//153 72//154
f 70//155 74//156 73//157
f 69//158 74//159 70//160
f 85//161 87//162 86//163
f 85//164 88//165 87//166
f 84//167 88//168 85//169
f 84//170 89//171 88//172
f 84//173 90//174 89//175
f 75//176 78//177 76//178
f 75//179 79//180 78//181
f 74//182 79//183 75//184
f 74//185 80//186 79//187
f 69//188 80//189 74//190
f 83//191 90//192 84//193
f 83//194 91//195 90//196
f 64//197 66//198 65//199
f 63//200 66//201 64//202
f 63//203 67//204 66//205
f 62//206 67//207 63//208
f 62//209 68//210 67//211
f 61//212 68//213 62//214
f 61//215 69//216 68//217
f 47//218 49//219 48//220
f 82//221 91//222 83//223
f 82//224 92//225 91//226
f 81//227 92//228 82//229
f 47//230 50//231 49//232
f 46//233 50//234 47//235
f 46//236 51//237 50//238
f 126//239 51//240 46//241
f 94//242 96//243 95//244
f 94//245 97//246 96//247
f 93//248 97//249 94//250
f 93//251 98//252 97//253
f 92//254 98//255 93//256
f 81//257 98//258 92//259
f 102//260 104//261 103//262
f 102//263 105//264 104//265
f 101//266 105//267 102//268
f 101//269 106//270 105//271
f 126//272 52//273 51//274
f 109//275 52//276 126//277
f 109//278 53//279 52//280
f 109//281 54//282 53//283
f 108//284 54//285 109//286
f 108//287 55//288 54//289
f 107//290 55//291 108//292
f 107//293 56//294 55//295
f 106//296 56//297 107//298
f 106//299 58//300 56//301
f 100//302 106//303 101//304
f 100//305 58//306 106//307
f 99//308 58//309 100//310
f 99//311 59//312 58//313
f 98//314 59//315 99//316
f 98//317 60//318 59//319
f 81//320 60//321 98//322
f 61//323 80//324 69//325
f 61//326 81//327 80//328
f 81//329 61//330 60//331
f 32//332 45//333 42//334 34//335
f 34//336 42//337 43//338 21//339
f 21//340 43//341 44//342 29//343
f 29//344 44//345 45//346 32//347
f 25//348 1//349 19//350 36//351
f 36//352 19//353 12//354 30//355
f 30//356 12//357 6//358 26//359
f 26//360 6//361 1//362 25//363
f 19//364 1//365 6//366 12//367
f 36//368 30//369 26//370 25//371
f 21//372 2//373 17//374 34//375
f 34//376 17//377 13//378 32//379
f 32//380 13//381 8//382 29//383
f 29//384 8//385 2//386 21//387
f 17//388 2//389 8//390 13//391
f 16//392 39//393 38//394 3//395
f 39//396 23//397 38//398
f 14//399 40//400 39//401 16//402
f 40//403 23//404 39//405
f 9//406 41//407 40//408 14//409
f 41//410 23//411 40//412
f 3//413 38//414 41//415 9//416
f 38//417 23//418 41//419
f 16//420 3//421 9//422 14//423
f 22//424 5//425 20//426 35//427
f 35//428 20//429 11//430 33//431
f 33//432 11//433 10//434 27//435
f 27//436 10//437 5//438 22//439
f 20//440 5//441 10//442 11//443
f 35//444 33//445 27//446 22//447
